<svg xmlns="http://www.w3.org/2000/svg" viewBox="0 0 980 500" role="img" aria-labelledby="title desc"><title id="title">Vollständiger Messaufbau</title><desc id="desc">Strombegrenzte Quelle, Schalter, Amperemeter und IEC-Widerstand im Serienpfad sowie Voltmeter parallel.</desc><style>.w{stroke:#172033;stroke-width:3;fill:none;stroke-linecap:round;stroke-linejoin:round}.r{stroke:#172033;stroke-width:3;fill:#fff}.t{font:16px system-ui,sans-serif;fill:#172033}.s{font:13px system-ui,sans-serif;fill:#445}.a{stroke:#087ea4;stroke-width:3;fill:none;marker-end:url(#arrow)}.g{stroke:#15803d;stroke-width:3;fill:none}</style><defs><marker id="arrow" markerWidth="10" markerHeight="10" refX="8" refY="3" orient="auto"><path d="M0,0 L0,6 L9,3 z" fill="#087ea4"/></marker></defs><rect x="45" y="155" width="180" height="145" rx="10" fill="#eef7ff" stroke="#087ea4" stroke-width="3"/><text class="t" x="73" y="190">Labornetzgerät</text><text class="s" x="82" y="220">5,00 V / 10 mA</text><text class="t" x="195" y="265">+</text><text class="t" x="57" y="265">−</text><path class="w" d="M205 250h90m80 0h80m80 0h80m150 0h70v150H65V300"/><path class="w" d="M295 250h20m40-25l-40 25m40 0h20"/><text class="s" x="300" y="210">S1</text><circle class="r" cx="495" cy="250" r="40"/><text class="t" x="485" y="257">A</text><rect class="r" x="615" y="225" width="150" height="50"/><text class="t" x="635" y="210">R1 1 kΩ</text><circle cx="595" cy="250" r="6" fill="#172033"/><circle cx="785" cy="250" r="6" fill="#172033"/><path class="w" d="M595 250v-125h55m80 0h55v125"/><circle class="r" cx="690" cy="125" r="40"/><text class="t" x="680" y="132">V</text><path class="a" d="M245 250h40"/><text class="t" x="250" y="232">I</text><text class="s" x="255" y="455">Ausgang AUS bei Aufbauänderung · A in Serie · V parallel · R nur energiefrei</text></svg>
